<svg width="187" height="62" viewBox="0 0 187 62" fill="none" xmlns="http://www.w3.org/2000/svg">
<rect width="187" height="62" rx="4" fill="black" fill-opacity="0.4"/>
<rect x="1" y="1" width="185" height="60" rx="3" stroke="#C72C3C" stroke-opacity="0.5" stroke-width="2"/>
<path opacity="0.8" d="M25.5625 19.25L30.3125 29.625L35.0625 19.25H40.1719L32.6875 33.7188V42H27.9375V33.7188L20.4375 19.25H25.5625ZM40.2188 33.7188V33.3906C40.2188 32.151 40.3958 31.0104 40.75 29.9688C41.1042 28.9167 41.6198 28.0052 42.2969 27.2344C42.974 26.4635 43.8073 25.8646 44.7969 25.4375C45.7865 25 46.9219 24.7812 48.2031 24.7812C49.4844 24.7812 50.625 25 51.625 25.4375C52.625 25.8646 53.4635 26.4635 54.1406 27.2344C54.8281 28.0052 55.349 28.9167 55.7031 29.9688C56.0573 31.0104 56.2344 32.151 56.2344 33.3906V33.7188C56.2344 34.9479 56.0573 36.0885 55.7031 37.1406C55.349 38.1823 54.8281 39.0938 54.1406 39.875C53.4635 40.6458 52.6302 41.2448 51.6406 41.6719C50.651 42.099 49.5156 42.3125 48.2344 42.3125C46.9531 42.3125 45.8125 42.099 44.8125 41.6719C43.8229 41.2448 42.9844 40.6458 42.2969 39.875C41.6198 39.0938 41.1042 38.1823 40.75 37.1406C40.3958 36.0885 40.2188 34.9479 40.2188 33.7188ZM44.7188 33.3906V33.7188C44.7188 34.4271 44.7812 35.0885 44.9062 35.7031C45.0312 36.3177 45.2292 36.8594 45.5 37.3281C45.7812 37.7865 46.1458 38.1458 46.5938 38.4062C47.0417 38.6667 47.5885 38.7969 48.2344 38.7969C48.8594 38.7969 49.3958 38.6667 49.8438 38.4062C50.2917 38.1458 50.651 37.7865 50.9219 37.3281C51.1927 36.8594 51.3906 36.3177 51.5156 35.7031C51.651 35.0885 51.7188 34.4271 51.7188 33.7188V33.3906C51.7188 32.7031 51.651 32.0573 51.5156 31.4531C51.3906 30.8385 51.1875 30.2969 50.9062 29.8281C50.6354 29.349 50.276 28.974 49.8281 28.7031C49.3802 28.4323 48.8385 28.2969 48.2031 28.2969C47.5677 28.2969 47.026 28.4323 46.5781 28.7031C46.1406 28.974 45.7812 29.349 45.5 29.8281C45.2292 30.2969 45.0312 30.8385 44.9062 31.4531C44.7812 32.0573 44.7188 32.7031 44.7188 33.3906ZM69 37.9531V25.0938H73.5V42H69.2656L69 37.9531ZM69.5 34.4844L70.8281 34.4531C70.8281 35.5781 70.6979 36.625 70.4375 37.5938C70.1771 38.5521 69.7865 39.3854 69.2656 40.0938C68.7448 40.7917 68.0885 41.3385 67.2969 41.7344C66.5052 42.1198 65.5729 42.3125 64.5 42.3125C63.6771 42.3125 62.9167 42.1979 62.2188 41.9688C61.5312 41.7292 60.9375 41.3594 60.4375 40.8594C59.9479 40.349 59.5625 39.6979 59.2812 38.9062C59.0104 38.1042 58.875 37.1406 58.875 36.0156V25.0938H63.375V36.0469C63.375 36.5469 63.4323 36.9688 63.5469 37.3125C63.6719 37.6562 63.8438 37.9375 64.0625 38.1562C64.2812 38.375 64.5365 38.5312 64.8281 38.625C65.1302 38.7188 65.4635 38.7656 65.8281 38.7656C66.7552 38.7656 67.4844 38.5781 68.0156 38.2031C68.5573 37.8281 68.9375 37.3177 69.1562 36.6719C69.3854 36.0156 69.5 35.2865 69.5 34.4844ZM81.4375 28.7812V42H76.9375V25.0938H81.1719L81.4375 28.7812ZM86.5312 24.9844L86.4531 29.1562C86.2344 29.125 85.9688 29.099 85.6562 29.0781C85.3542 29.0469 85.0781 29.0312 84.8281 29.0312C84.1927 29.0312 83.6406 29.1146 83.1719 29.2812C82.7135 29.4375 82.3281 29.6719 82.0156 29.9844C81.7135 30.2969 81.4844 30.6771 81.3281 31.125C81.1823 31.5729 81.099 32.0833 81.0781 32.6562L80.1719 32.375C80.1719 31.2812 80.2812 30.276 80.5 29.3594C80.7188 28.4323 81.0365 27.625 81.4531 26.9375C81.8802 26.25 82.401 25.7188 83.0156 25.3438C83.6302 24.9688 84.3333 24.7812 85.125 24.7812C85.375 24.7812 85.6302 24.8021 85.8906 24.8438C86.151 24.875 86.3646 24.9219 86.5312 24.9844ZM111.531 38.3438V42H100.078V38.3438H111.531ZM101.594 19.25V42H96.9062V19.25H101.594ZM113.219 33.7188V33.3906C113.219 32.151 113.396 31.0104 113.75 29.9688C114.104 28.9167 114.62 28.0052 115.297 27.2344C115.974 26.4635 116.807 25.8646 117.797 25.4375C118.786 25 119.922 24.7812 121.203 24.7812C122.484 24.7812 123.625 25 124.625 25.4375C125.625 25.8646 126.464 26.4635 127.141 27.2344C127.828 28.0052 128.349 28.9167 128.703 29.9688C129.057 31.0104 129.234 32.151 129.234 33.3906V33.7188C129.234 34.9479 129.057 36.0885 128.703 37.1406C128.349 38.1823 127.828 39.0938 127.141 39.875C126.464 40.6458 125.63 41.2448 124.641 41.6719C123.651 42.099 122.516 42.3125 121.234 42.3125C119.953 42.3125 118.812 42.099 117.812 41.6719C116.823 41.2448 115.984 40.6458 115.297 39.875C114.62 39.0938 114.104 38.1823 113.75 37.1406C113.396 36.0885 113.219 34.9479 113.219 33.7188ZM117.719 33.3906V33.7188C117.719 34.4271 117.781 35.0885 117.906 35.7031C118.031 36.3177 118.229 36.8594 118.5 37.3281C118.781 37.7865 119.146 38.1458 119.594 38.4062C120.042 38.6667 120.589 38.7969 121.234 38.7969C121.859 38.7969 122.396 38.6667 122.844 38.4062C123.292 38.1458 123.651 37.7865 123.922 37.3281C124.193 36.8594 124.391 36.3177 124.516 35.7031C124.651 35.0885 124.719 34.4271 124.719 33.7188V33.3906C124.719 32.7031 124.651 32.0573 124.516 31.4531C124.391 30.8385 124.188 30.2969 123.906 29.8281C123.635 29.349 123.276 28.974 122.828 28.7031C122.38 28.4323 121.839 28.2969 121.203 28.2969C120.568 28.2969 120.026 28.4323 119.578 28.7031C119.141 28.974 118.781 29.349 118.5 29.8281C118.229 30.2969 118.031 30.8385 117.906 31.4531C117.781 32.0573 117.719 32.7031 117.719 33.3906ZM142.703 25.0938H146.781V41.4375C146.781 42.9792 146.438 44.2865 145.75 45.3594C145.073 46.4427 144.125 47.2604 142.906 47.8125C141.688 48.375 140.271 48.6562 138.656 48.6562C137.948 48.6562 137.198 48.5625 136.406 48.375C135.625 48.1875 134.875 47.8958 134.156 47.5C133.448 47.1042 132.854 46.6042 132.375 46L134.359 43.3438C134.88 43.9479 135.484 44.4167 136.172 44.75C136.859 45.0938 137.62 45.2656 138.453 45.2656C139.266 45.2656 139.953 45.1146 140.516 44.8125C141.078 44.5208 141.51 44.0885 141.812 43.5156C142.115 42.9531 142.266 42.2708 142.266 41.4688V29L142.703 25.0938ZM131.328 33.75V33.4219C131.328 32.1302 131.484 30.9583 131.797 29.9062C132.12 28.8438 132.573 27.9323 133.156 27.1719C133.75 26.4115 134.469 25.8229 135.312 25.4062C136.156 24.9896 137.109 24.7812 138.172 24.7812C139.297 24.7812 140.24 24.9896 141 25.4062C141.76 25.8229 142.385 26.4167 142.875 27.1875C143.365 27.9479 143.745 28.849 144.016 29.8906C144.297 30.9219 144.516 32.0521 144.672 33.2812V34C144.516 35.1771 144.281 36.2708 143.969 37.2812C143.656 38.2917 143.245 39.1771 142.734 39.9375C142.224 40.6875 141.589 41.2708 140.828 41.6875C140.078 42.1042 139.182 42.3125 138.141 42.3125C137.099 42.3125 136.156 42.099 135.312 41.6719C134.479 41.2448 133.766 40.6458 133.172 39.875C132.578 39.1042 132.12 38.1979 131.797 37.1562C131.484 36.1146 131.328 34.9792 131.328 33.75ZM135.828 33.4219V33.75C135.828 34.4479 135.896 35.099 136.031 35.7031C136.167 36.3073 136.375 36.8438 136.656 37.3125C136.948 37.7708 137.307 38.1302 137.734 38.3906C138.172 38.6406 138.688 38.7656 139.281 38.7656C140.104 38.7656 140.776 38.5938 141.297 38.25C141.818 37.8958 142.208 37.4115 142.469 36.7969C142.729 36.1823 142.88 35.474 142.922 34.6719V32.625C142.901 31.9688 142.812 31.3802 142.656 30.8594C142.5 30.3281 142.281 29.875 142 29.5C141.719 29.125 141.354 28.8333 140.906 28.625C140.458 28.4167 139.927 28.3125 139.312 28.3125C138.719 28.3125 138.203 28.4479 137.766 28.7188C137.339 28.9792 136.979 29.3385 136.688 29.7969C136.406 30.2552 136.193 30.7969 136.047 31.4219C135.901 32.0365 135.828 32.7031 135.828 33.4219ZM149.562 33.7188V33.3906C149.562 32.151 149.74 31.0104 150.094 29.9688C150.448 28.9167 150.964 28.0052 151.641 27.2344C152.318 26.4635 153.151 25.8646 154.141 25.4375C155.13 25 156.266 24.7812 157.547 24.7812C158.828 24.7812 159.969 25 160.969 25.4375C161.969 25.8646 162.807 26.4635 163.484 27.2344C164.172 28.0052 164.693 28.9167 165.047 29.9688C165.401 31.0104 165.578 32.151 165.578 33.3906V33.7188C165.578 34.9479 165.401 36.0885 165.047 37.1406C164.693 38.1823 164.172 39.0938 163.484 39.875C162.807 40.6458 161.974 41.2448 160.984 41.6719C159.995 42.099 158.859 42.3125 157.578 42.3125C156.297 42.3125 155.156 42.099 154.156 41.6719C153.167 41.2448 152.328 40.6458 151.641 39.875C150.964 39.0938 150.448 38.1823 150.094 37.1406C149.74 36.0885 149.562 34.9479 149.562 33.7188ZM154.062 33.3906V33.7188C154.062 34.4271 154.125 35.0885 154.25 35.7031C154.375 36.3177 154.573 36.8594 154.844 37.3281C155.125 37.7865 155.49 38.1458 155.938 38.4062C156.385 38.6667 156.932 38.7969 157.578 38.7969C158.203 38.7969 158.74 38.6667 159.188 38.4062C159.635 38.1458 159.995 37.7865 160.266 37.3281C160.536 36.8594 160.734 36.3177 160.859 35.7031C160.995 35.0885 161.062 34.4271 161.062 33.7188V33.3906C161.062 32.7031 160.995 32.0573 160.859 31.4531C160.734 30.8385 160.531 30.2969 160.25 29.8281C159.979 29.349 159.62 28.974 159.172 28.7031C158.724 28.4323 158.182 28.2969 157.547 28.2969C156.911 28.2969 156.37 28.4323 155.922 28.7031C155.484 28.974 155.125 29.349 154.844 29.8281C154.573 30.2969 154.375 30.8385 154.25 31.4531C154.125 32.0573 154.062 32.7031 154.062 33.3906Z" fill="#C72C3C"/>
</svg>
